<svg id="visual" viewBox="0 0 900 600" width="900" height="600" xmlns="http://www.w3.org/2000/svg" xmlns:xlink="http://www.w3.org/1999/xlink" version="1.1"><rect x="0" y="0" width="900" height="600" fill="#ffffff"></rect><path d="M0 404L82 415L164 442L245 388L327 466L409 461L491 370L573 403L655 441L736 440L818 390L900 386L900 601L818 601L736 601L655 601L573 601L491 601L409 601L327 601L245 601L164 601L82 601L0 601Z" fill="#e77471"></path><path d="M0 443L82 438L164 438L245 372L327 400L409 378L491 465L573 429L655 435L736 425L818 425L900 485L900 601L818 601L736 601L655 601L573 601L491 601L409 601L327 601L245 601L164 601L82 601L0 601Z" fill="#de6a68"></path><path d="M0 397L82 445L164 414L245 499L327 436L409 462L491 389L573 463L655 476L736 474L818 443L900 408L900 601L818 601L736 601L655 601L573 601L491 601L409 601L327 601L245 601L164 601L82 601L0 601Z" fill="#d5615e"></path><path d="M0 438L82 431L164 481L245 503L327 488L409 425L491 477L573 471L655 450L736 436L818 424L900 431L900 601L818 601L736 601L655 601L573 601L491 601L409 601L327 601L245 601L164 601L82 601L0 601Z" fill="#cc5755"></path><path d="M0 519L82 508L164 459L245 511L327 512L409 518L491 455L573 516L655 449L736 514L818 468L900 487L900 601L818 601L736 601L655 601L573 601L491 601L409 601L327 601L245 601L164 601L82 601L0 601Z" fill="#c34d4c"></path><path d="M0 459L82 489L164 485L245 518L327 485L409 472L491 470L573 481L655 465L736 511L818 497L900 468L900 601L818 601L736 601L655 601L573 601L491 601L409 601L327 601L245 601L164 601L82 601L0 601Z" fill="#ba4343"></path><path d="M0 502L82 476L164 513L245 542L327 542L409 499L491 496L573 544L655 512L736 538L818 513L900 534L900 601L818 601L736 601L655 601L573 601L491 601L409 601L327 601L245 601L164 601L82 601L0 601Z" fill="#b1393a"></path><path d="M0 519L82 518L164 515L245 511L327 541L409 545L491 536L573 541L655 509L736 544L818 509L900 504L900 601L818 601L736 601L655 601L573 601L491 601L409 601L327 601L245 601L164 601L82 601L0 601Z" fill="#a82e32"></path><path d="M0 556L82 540L164 558L245 559L327 567L409 521L491 558L573 538L655 560L736 516L818 560L900 527L900 601L818 601L736 601L655 601L573 601L491 601L409 601L327 601L245 601L164 601L82 601L0 601Z" fill="#9e222a"></path><path d="M0 553L82 556L164 577L245 558L327 566L409 542L491 552L573 553L655 561L736 542L818 575L900 555L900 601L818 601L736 601L655 601L573 601L491 601L409 601L327 601L245 601L164 601L82 601L0 601Z" fill="#951422"></path><path d="M0 560L82 588L164 566L245 570L327 568L409 582L491 578L573 560L655 578L736 577L818 574L900 582L900 601L818 601L736 601L655 601L573 601L491 601L409 601L327 601L245 601L164 601L82 601L0 601Z" fill="#8c001a"></path></svg>